<?xml version="1.0" standalone="no"?>
<!DOCTYPE svg PUBLIC "-//W3C//DTD SVG 20010904//EN"
 "http://www.w3.org/TR/2001/REC-SVG-20010904/DTD/svg10.dtd">
<svg version="1.0" xmlns="http://www.w3.org/2000/svg"
 width="1772.000000pt" height="1772.000000pt" viewBox="0 0 1772.000000 1772.000000"
 preserveAspectRatio="xMidYMid meet">
<metadata>
Created by potrace 1.11, written by Peter Selinger 2001-2013
</metadata>
<g transform="translate(0.000000,1772.000000) scale(0.100000,-0.100000)"
fill="#000000" stroke="none">
<path d="M8400 17120 c0 -5 -19 -10 -42 -10 -197 0 -740 -63 -958 -111 -24 -6
-78 -14 -120 -19 -41 -6 -165 -32 -275 -59 -110 -27 -229 -56 -265 -64 -36 -9
-87 -23 -115 -31 -279 -84 -365 -111 -460 -146 -60 -23 -119 -43 -131 -45 -40
-9 -329 -125 -449 -180 -44 -21 -96 -43 -115 -50 -93 -34 -657 -322 -755 -386
-22 -14 -78 -47 -125 -74 -46 -26 -90 -54 -98 -62 -8 -7 -27 -20 -42 -28 -82
-42 -534 -355 -585 -405 -17 -17 -35 -30 -39 -30 -10 0 -85 -57 -106 -80 -8
-9 -49 -43 -90 -76 -270 -211 -755 -679 -989 -951 -62 -73 -117 -133 -123
-133 -5 0 -7 -4 -4 -9 3 -4 -7 -19 -22 -33 -32 -30 -57 -60 -59 -71 -1 -5 -17
-27 -37 -49 -20 -22 -36 -43 -36 -46 0 -4 -16 -25 -35 -47 -19 -22 -39 -45
-45 -52 -5 -7 -10 -16 -10 -20 0 -5 -13 -19 -30 -33 -16 -14 -30 -29 -30 -34
0 -5 -17 -32 -38 -60 -20 -28 -53 -75 -72 -103 -19 -29 -38 -53 -42 -53 -5 0
-8 -7 -8 -15 0 -8 -5 -15 -11 -15 -5 0 -8 -4 -5 -8 2 -4 -11 -23 -30 -41 -19
-19 -34 -40 -34 -47 0 -8 -5 -14 -12 -14 -6 0 -9 -3 -5 -6 5 -6 -46 -90 -63
-104 -3 -3 -12 -19 -18 -35 -7 -17 -24 -44 -37 -59 -14 -16 -25 -33 -25 -39 0
-15 -62 -107 -72 -107 -5 0 -6 -4 -3 -10 3 -5 1 -10 -5 -10 -6 0 -8 -4 -5 -10
3 -5 3 -10 -2 -10 -9 0 -37 -48 -126 -220 -35 -69 -88 -168 -117 -220 -30 -52
-69 -130 -87 -173 -18 -43 -40 -88 -48 -100 -8 -12 -15 -28 -15 -37 0 -8 -19
-53 -41 -100 -23 -47 -43 -96 -46 -110 -2 -14 -15 -41 -29 -61 -13 -20 -40
-80 -59 -135 -18 -54 -41 -112 -49 -129 -9 -16 -16 -37 -16 -45 0 -8 -18 -64
-40 -125 -22 -60 -43 -122 -45 -138 -8 -41 -47 -141 -58 -148 -5 -4 -7 -14 -4
-23 4 -9 2 -16 -3 -16 -5 0 -12 -17 -15 -37 -4 -21 -15 -65 -25 -98 -22 -72
-37 -131 -43 -165 -3 -14 -23 -99 -45 -190 -22 -91 -40 -174 -40 -185 0 -11
-14 -83 -31 -160 -66 -312 -128 -759 -133 -975 -6 -220 -3 -1086 4 -1235 10
-232 57 -567 125 -895 19 -96 36 -182 35 -190 0 -8 18 -89 40 -180 22 -91 42
-176 45 -190 6 -34 21 -93 43 -165 10 -33 21 -77 25 -97 3 -21 10 -38 15 -38
5 0 7 -7 3 -16 -3 -9 -1 -19 4 -23 11 -7 50 -107 58 -148 2 -16 23 -77 45
-138 22 -60 40 -117 40 -125 0 -8 7 -28 16 -45 8 -16 31 -75 50 -130 19 -55
42 -111 53 -125 16 -23 32 -58 37 -85 1 -6 18 -44 38 -84 20 -40 38 -84 41
-98 2 -14 8 -30 14 -36 5 -7 27 -52 48 -102 22 -49 63 -133 93 -185 29 -52 86
-160 128 -240 41 -80 78 -147 82 -150 4 -3 10 -15 14 -27 4 -13 12 -23 17 -23
6 0 7 -4 4 -10 -3 -5 -1 -10 5 -10 6 0 8 -4 5 -10 -3 -5 -2 -10 3 -10 11 0 57
-71 54 -83 -1 -4 2 -7 8 -7 5 0 10 -6 10 -14 0 -8 6 -21 13 -28 22 -21 68 -98
60 -98 -5 0 -3 -4 3 -8 19 -13 73 -99 67 -106 -4 -3 -1 -6 5 -6 7 0 12 -6 12
-14 0 -8 10 -22 22 -30 12 -9 18 -16 13 -16 -5 0 1 -7 13 -16 12 -8 20 -20 17
-25 -4 -5 -1 -9 4 -9 6 0 11 -7 11 -15 0 -8 3 -15 8 -15 7 0 103 -135 132
-187 8 -15 30 -41 48 -59 17 -17 32 -34 32 -38 0 -4 5 -12 10 -19 6 -7 26 -30
45 -52 19 -22 35 -43 35 -47 0 -3 16 -24 36 -46 20 -22 34 -42 33 -44 -4 -4
30 -45 63 -76 15 -14 25 -29 22 -33 -3 -5 -1 -9 4 -9 6 0 61 -60 123 -132 231
-270 701 -723 984 -949 60 -48 79 -69 77 -84 -4 -21 -134 -556 -172 -705 -12
-47 -26 -105 -31 -129 -5 -24 -16 -57 -24 -74 -8 -17 -15 -33 -15 -37 0 -18
872 -60 1620 -79 360 -9 317 -1 505 -86 33 -14 78 -34 100 -44 64 -29 328
-131 350 -136 11 -2 83 -27 160 -55 77 -28 149 -52 160 -55 11 -2 65 -18 120
-35 171 -53 198 -61 260 -75 33 -7 152 -36 265 -64 113 -28 239 -55 280 -60
41 -6 107 -17 145 -25 39 -8 161 -28 273 -46 184 -28 281 -37 600 -57 56 -3
102 -10 102 -15 0 -4 209 -8 465 -8 256 0 465 4 465 8 0 5 46 12 103 15 318
20 415 29 599 57 112 18 245 40 295 50 51 11 116 22 145 25 29 2 154 30 278
60 334 82 346 85 455 120 55 18 116 36 135 40 19 4 103 32 185 62 83 29 159
56 170 58 20 5 55 18 110 41 17 6 68 27 115 45 90 34 123 48 235 99 168 77
140 73 485 81 329 8 663 21 1035 38 516 25 575 30 575 47 0 8 -4 14 -10 14 -5
0 -10 9 -10 20 0 10 -4 29 -9 42 -5 13 -21 75 -36 138 -14 63 -31 133 -36 155
-6 22 -15 58 -21 80 -5 22 -13 54 -18 70 -5 17 -21 82 -35 145 -15 63 -36 148
-46 187 -11 40 -19 79 -19 86 0 7 23 31 52 52 178 136 374 312 638 575 223
223 345 354 466 498 42 50 81 92 86 92 4 0 8 7 8 15 0 8 9 20 20 27 11 7 20
17 20 23 0 5 16 27 35 47 19 20 35 40 35 45 0 4 16 26 35 48 19 22 39 45 45
52 5 7 10 16 10 22 0 5 16 23 35 40 19 17 35 35 35 41 0 5 5 10 12 10 6 0 8 3
5 7 -4 3 -1 13 7 22 7 9 35 48 62 86 26 39 51 72 56 73 4 2 8 10 8 18 0 8 5
14 11 14 5 0 8 4 5 9 -3 4 12 27 33 50 21 22 35 41 32 41 -3 0 -1 4 4 8 6 4
18 24 29 44 10 20 26 45 35 55 9 10 22 32 29 48 7 17 24 44 37 59 14 16 25 35
25 43 0 7 4 13 10 13 5 0 9 3 8 8 -2 6 18 40 70 122 9 14 17 29 17 33 0 4 5
11 11 15 11 7 121 212 205 382 21 41 42 80 48 86 5 7 7 15 4 18 -4 3 -2 6 4 6
5 0 23 30 38 68 15 37 37 81 47 99 10 17 21 41 23 52 2 11 20 54 39 95 20 42
36 80 36 86 0 16 63 154 75 162 6 5 6 8 0 8 -7 0 -7 3 0 8 6 4 21 39 34 77 13
39 27 75 31 80 3 6 30 84 59 175 29 91 71 218 93 283 21 65 36 122 33 127 -4
6 -1 10 5 10 7 0 10 7 6 15 -3 8 -2 15 3 15 5 0 11 10 14 23 3 12 15 56 27 97
12 41 23 86 25 100 2 14 19 90 39 170 19 80 38 165 41 189 3 24 21 123 41 220
19 97 37 201 39 231 8 108 29 250 38 250 5 0 7 18 5 40 -2 22 -1 40 2 40 4 0
12 51 20 113 10 79 15 295 17 741 4 591 3 643 -17 845 -12 119 -25 218 -29
221 -8 6 -29 152 -36 245 -2 33 -20 139 -39 236 -20 97 -38 196 -41 220 -3 24
-21 108 -40 186 -19 79 -35 150 -35 158 0 8 -12 54 -26 102 -15 49 -29 98 -31
111 -3 12 -9 22 -14 22 -5 0 -6 7 -3 15 4 8 1 15 -6 15 -6 0 -8 4 -5 10 3 5
-12 63 -35 128 -22 66 -42 128 -44 138 -6 29 -95 295 -111 329 -7 17 -21 55
-31 85 -11 30 -23 58 -29 62 -7 5 -7 8 0 8 7 0 7 3 0 8 -12 9 -64 120 -69 148
-3 11 -21 56 -41 98 -20 42 -38 86 -40 97 -2 11 -13 35 -24 52 -10 18 -31 62
-46 100 -15 37 -31 67 -37 67 -5 0 -7 4 -4 9 4 5 2 11 -3 13 -4 1 -25 37 -44
78 -20 41 -46 93 -58 115 -12 22 -26 48 -31 58 -34 71 -114 213 -122 219 -6 4
-11 11 -11 15 -1 7 -24 47 -73 123 -9 14 -15 28 -14 33 1 4 -2 7 -8 7 -5 0
-10 6 -10 14 0 7 -14 30 -30 51 -17 21 -33 49 -36 62 -4 12 -10 23 -15 23 -5
0 -9 7 -9 15 0 8 -4 15 -8 15 -5 0 -17 17 -28 37 -10 20 -26 44 -34 54 -33 37
-65 83 -62 91 1 4 -2 8 -8 8 -5 0 -10 6 -10 14 0 8 -3 16 -7 18 -13 5 -65 78
-56 78 4 0 3 4 -2 8 -19 13 -77 92 -68 92 4 0 0 5 -9 11 -10 5 -18 15 -18 20
0 6 -13 22 -30 36 -16 13 -30 29 -30 34 0 6 -5 15 -10 22 -6 7 -26 30 -45 52
-19 22 -35 44 -35 48 0 5 -16 25 -35 45 -19 20 -35 42 -35 48 0 6 -19 30 -43
55 -24 24 -97 107 -163 184 -103 121 -504 532 -649 666 -77 70 -262 228 -345
294 -41 32 -78 64 -83 71 -4 7 -38 33 -76 58 -38 25 -74 53 -81 62 -8 8 -36
31 -64 50 -28 19 -98 68 -156 109 -133 95 -312 214 -367 245 -24 13 -43 27
-43 30 0 4 -19 16 -42 29 -65 34 -128 71 -176 102 -23 16 -68 41 -99 56 -32
14 -72 36 -89 48 -38 26 -538 275 -552 275 -5 0 -54 20 -108 45 -136 63 -128
60 -234 100 -52 20 -108 42 -125 49 -53 23 -89 36 -110 41 -11 2 -69 23 -130
45 -145 53 -550 176 -610 185 -16 3 -119 27 -228 55 -109 27 -237 54 -284 60
-48 6 -89 13 -92 15 -12 7 -381 65 -506 79 -142 16 -405 36 -472 36 -24 0 -43
5 -43 10 0 7 -162 10 -465 10 -303 0 -465 -3 -465 -10z m-1890 -1814 c271 -29
451 -80 582 -166 92 -60 202 -175 257 -268 57 -95 138 -285 205 -482 43 -123
1212 -3787 1251 -3918 4 -15 12 -21 21 -18 9 4 18 -4 25 -21 5 -14 11 -24 13
-22 2 2 285 888 629 1969 645 2026 682 2140 761 2325 118 277 214 393 399 484
212 103 532 140 1212 141 473 0 691 -18 920 -77 230 -59 380 -137 505 -263
153 -153 226 -322 250 -579 15 -154 14 -6341 -1 -6487 -25 -248 -105 -448
-235 -583 -126 -133 -268 -214 -471 -268 -91 -25 -112 -27 -313 -27 -201 0
-221 2 -312 26 -341 93 -585 321 -677 634 -52 178 -51 101 -52 2464 l0 2195
-29 -93 c-15 -51 -33 -98 -38 -105 -5 -7 -274 -887 -596 -1957 -323 -1070
-618 -2037 -656 -2150 -138 -412 -186 -504 -340 -660 -210 -211 -421 -313
-734 -351 -128 -15 -443 -6 -546 16 -408 89 -684 311 -874 705 -86 177 -82
167 -857 2732 l-554 1838 -6 -113 c-3 -61 -7 -107 -9 -102 -3 6 -7 -944 -10
-2110 -6 -1955 -8 -2127 -23 -2204 -82 -400 -300 -632 -694 -738 -92 -25 -111
-27 -313 -27 -200 0 -222 2 -312 27 -53 14 -135 43 -181 65 -318 149 -495 405
-538 777 -7 60 -9 1162 -7 3350 3 3108 4 3264 22 3335 42 177 114 316 216 420
160 162 490 273 900 300 193 13 1050 3 1210 -14z m-4959 -4452 c201 -48 365
-93 379 -103 39 -28 46 -76 25 -178 -15 -71 -24 -94 -49 -119 l-31 -30 -235
-23 c-243 -24 -260 -27 -260 -43 0 -5 101 -58 225 -118 213 -103 227 -111 241
-146 13 -32 14 -49 4 -119 -6 -46 -20 -97 -31 -114 -31 -50 -55 -56 -177 -43
-714 77 -707 76 -731 128 -25 55 -4 141 38 164 32 16 123 12 309 -16 237 -35
241 -25 27 70 -305 134 -330 155 -323 254 3 31 13 64 25 80 37 51 71 59 323
77 129 10 239 21 244 25 11 11 5 12 -237 65 -114 25 -218 52 -231 60 -45 29
-57 89 -32 149 19 44 52 66 101 66 23 0 201 -39 396 -86z m14574 -611 c88 -41
184 -88 212 -104 63 -35 80 -35 236 -8 178 30 232 13 257 -79 14 -53 -9 -116
-51 -138 -21 -10 -282 -54 -326 -54 -2 0 -45 -39 -96 -87 -136 -130 -252 -230
-286 -247 -60 -31 -120 -17 -146 34 -38 74 -20 106 152 256 79 69 142 131 140
137 -2 7 -82 48 -178 93 -141 65 -178 87 -196 114 -55 80 2 181 92 164 17 -3
102 -40 190 -81z m-14940 -563 c99 -56 261 -141 360 -191 99 -50 195 -105 212
-122 87 -82 58 -222 -54 -270 -262 -111 -356 -153 -524 -233 -225 -108 -259
-115 -310 -65 -25 25 -29 37 -29 84 0 74 19 95 135 147 69 32 97 50 100 64 2
12 6 98 9 193 5 197 12 180 -99 236 -77 39 -109 68 -119 110 -10 40 10 103 41
126 49 39 83 29 278 -79z m15665 -225 c18 -9 34 -30 45 -59 15 -39 16 -50 4
-87 -23 -70 -40 -75 -293 -87 -120 -6 -223 -15 -228 -20 -12 -12 -12 -12 257
-77 105 -25 205 -55 223 -66 80 -48 79 -191 -1 -243 -12 -8 -110 -38 -217 -66
-107 -28 -208 -56 -223 -62 -58 -22 2 -32 220 -38 206 -5 212 -6 237 -29 41
-39 51 -84 31 -137 -30 -78 -19 -77 -462 -53 -213 11 -401 25 -416 31 -44 17
-57 55 -57 160 0 110 16 145 76 170 21 9 129 42 238 72 110 31 202 58 204 61
15 14 -35 33 -243 90 -156 43 -233 69 -248 83 -12 13 -23 41 -28 74 -18 129
-5 203 41 228 11 6 163 22 337 35 175 14 325 27 333 29 40 10 143 5 170 -9z
m-15116 -699 c52 -21 58 -51 71 -316 6 -124 12 -190 30 -322 20 -146 -2 -198
-85 -198 -68 0 -92 47 -106 202 -4 43 -12 82 -18 87 -7 5 -118 -2 -286 -20
-151 -16 -306 -29 -343 -29 -63 0 -71 3 -98 29 -25 26 -29 37 -29 86 0 118 4
120 397 147 175 12 324 26 332 32 11 9 13 33 8 118 -8 127 2 164 47 184 39 17
40 17 80 0z m14369 -468 c20 -27 20 -32 8 -170 -7 -79 -18 -180 -25 -226 -7
-45 -9 -87 -5 -93 8 -13 77 -28 130 -29 24 0 39 5 43 15 3 9 16 107 28 218 21
192 23 203 49 230 33 33 76 36 107 7 39 -37 39 -70 -4 -379 -12 -85 -12 -107
-2 -117 17 -16 186 -40 198 -28 12 12 28 116 50 328 22 211 29 229 102 234 63
4 88 -27 88 -107 0 -111 -70 -618 -92 -666 -25 -55 -84 -66 -211 -40 -40 8
-191 35 -337 61 -146 25 -279 52 -297 61 -17 8 -37 27 -43 43 -14 33 -13 50
24 345 15 121 29 239 32 263 8 61 33 84 91 80 37 -2 50 -9 66 -30z m-14236
-473 c50 -35 54 -137 6 -175 -30 -23 -60 -32 -196 -55 -64 -12 -101 -23 -104
-32 -7 -18 63 -343 77 -357 6 -6 57 1 145 22 124 29 138 31 169 18 46 -19 71
-60 71 -114 0 -37 -5 -48 -32 -73 -18 -16 -45 -32 -60 -35 -16 -4 -176 -47
-357 -95 -338 -92 -403 -102 -445 -73 -46 33 -63 111 -36 164 21 41 49 53 207
89 82 20 138 38 142 46 3 8 1 29 -5 47 -5 18 -21 92 -35 163 -32 161 -32 162
-48 168 -7 3 -67 -6 -132 -19 -142 -28 -196 -30 -231 -7 -29 19 -53 69 -53
110 0 34 31 88 60 103 33 18 675 118 760 119 52 1 82 -4 97 -14z m14458 -460
c183 -48 297 -157 324 -311 6 -34 9 -76 7 -95 -3 -19 -7 -57 -10 -85 -7 -61
-88 -349 -112 -401 -19 -39 -66 -73 -102 -73 -13 0 -157 43 -320 96 -163 53
-318 103 -344 110 -62 19 -106 57 -114 98 -7 38 80 362 121 453 45 100 112
164 214 204 61 24 251 26 336 4z m-14225 -524 c39 -28 56 -83 41 -132 -16 -52
-46 -66 -339 -160 -249 -80 -297 -106 -320 -173 -24 -73 34 -225 101 -267 56
-35 115 -23 374 80 128 51 248 95 268 98 72 12 127 -36 129 -113 1 -58 -35
-94 -133 -135 -42 -17 -146 -61 -231 -97 -85 -36 -177 -71 -205 -78 -68 -19
-161 -17 -219 2 -145 50 -276 303 -276 533 0 84 3 104 26 149 51 102 119 140
404 228 335 102 328 101 380 65z m14300 -576 c62 -32 61 -152 -2 -198 -22 -16
-49 -22 -132 -26 -58 -3 -109 -10 -114 -16 -5 -5 -24 -48 -42 -95 -19 -47 -48
-118 -67 -159 -18 -40 -33 -82 -33 -93 0 -11 23 -46 52 -77 68 -74 88 -109 88
-151 0 -95 -113 -156 -181 -97 -14 12 -85 92 -157 177 -72 85 -192 222 -266
304 -143 156 -165 192 -152 259 9 49 45 99 86 119 25 13 59 18 117 18 89 0
483 26 598 39 113 13 174 12 205 -4z m-13945 -379 c28 -18 233 -433 251 -505
10 -42 10 -67 2 -105 -14 -69 -29 -95 -81 -143 -55 -51 -101 -66 -186 -61 -59
3 -74 8 -120 42 -29 21 -57 34 -60 29 -4 -4 -15 -37 -25 -73 -22 -85 -101
-245 -133 -270 -51 -40 -127 -20 -158 40 -33 63 -21 115 64 288 95 192 103
228 68 306 -14 31 -31 56 -37 56 -5 0 -64 -27 -130 -60 -96 -48 -129 -60 -168
-60 -77 0 -122 48 -122 129 0 69 25 86 355 236 165 76 323 146 350 156 53 20
94 18 130 -5z m12985 -364 c48 -24 67 -75 47 -125 -21 -49 -50 -65 -142 -78
-95 -13 -142 -35 -180 -85 -113 -148 -42 -329 171 -434 79 -39 166 -46 219
-18 83 45 149 151 150 243 0 55 -4 67 -42 126 -52 80 -57 130 -18 177 46 55
109 51 173 -11 64 -61 94 -158 85 -272 -6 -78 -19 -128 -50 -190 -68 -134
-164 -238 -261 -283 -80 -37 -213 -43 -310 -13 -133 41 -267 156 -326 281 -27
58 -31 77 -34 175 -3 97 -1 118 21 177 77 211 236 343 417 347 25 1 61 -7 80
-17z m-12499 -475 c93 -63 59 -201 -63 -251 -53 -22 -162 -20 -215 3 -61 28
-82 83 -46 123 20 22 39 23 88 2 52 -22 65 -14 65 41 0 92 91 136 171 82z
m233 -411 c65 -32 198 -167 238 -242 61 -113 71 -230 27 -315 -24 -47 -45 -59
-104 -59 -35 0 -52 6 -70 24 -35 35 -41 71 -22 142 22 82 21 112 -4 154 -60
100 -144 146 -191 103 -32 -28 -22 -78 43 -220 86 -189 99 -233 99 -323 0 -67
-3 -82 -29 -123 -38 -58 -91 -94 -165 -109 -143 -30 -309 67 -439 258 -66 97
-87 163 -87 271 0 102 19 153 69 196 73 61 181 6 181 -92 0 -16 -11 -53 -25
-83 -15 -32 -25 -71 -25 -98 0 -112 152 -262 233 -231 75 29 73 86 -6 256 -30
66 -62 144 -71 174 -20 67 -21 171 -2 214 19 44 85 105 132 123 57 21 152 12
218 -20z m11519 -132 c161 -37 422 -89 566 -114 68 -12 132 -25 142 -31 66
-35 64 -156 -3 -203 -29 -21 -112 -21 -191 0 -33 8 -70 13 -81 10 -12 -3 -41
-34 -66 -68 -25 -35 -75 -101 -112 -147 -38 -47 -68 -91 -68 -98 0 -7 18 -50
41 -94 25 -50 40 -96 41 -119 1 -70 -54 -120 -132 -120 -56 0 -75 23 -135 162
-26 62 -106 232 -177 378 -103 214 -128 273 -128 308 0 90 68 160 158 161 18
1 84 -11 145 -25z m-10860 -2197 c24 -9 22 -27 -17 -179 -31 -118 -44 -165
-76 -283 -75 -274 -75 -271 -62 -278 27 -17 546 -39 982 -42 l395 -2 95 -48
95 -47 -75 6 c-41 3 -217 8 -390 12 -287 5 -595 14 -1053 31 -92 3 -170 10
-173 15 -3 5 -2 21 4 36 5 15 14 50 20 77 20 90 43 189 52 228 18 68 29 111
39 157 6 25 21 92 35 150 13 58 30 131 37 162 l13 57 31 -23 c16 -12 38 -25
48 -29z m10146 -47 c21 -91 93 -399 101 -430 5 -19 19 -75 30 -125 12 -49 28
-116 36 -148 8 -31 13 -61 10 -66 -3 -4 -81 -11 -173 -14 -537 -19 -782 -26
-1073 -32 -179 -3 -347 -8 -375 -11 l-50 -6 90 45 90 45 465 5 c412 5 584 11
834 32 81 7 90 11 81 34 -4 9 -11 31 -16 49 -5 17 -13 47 -18 65 -5 17 -18 66
-30 107 -32 118 -52 192 -63 230 -5 19 -13 51 -18 70 -4 19 -15 61 -24 93 -9
32 -16 62 -16 67 0 6 21 25 48 44 l47 35 8 -27 c5 -15 12 -43 16 -62z m-10022
-51 c12 -9 20 -19 17 -22 -3 -3 -9 -20 -14 -39 -23 -91 -54 -197 -99 -333 -27
-82 -48 -152 -45 -154 2 -2 156 -4 343 -5 234 -1 343 2 351 10 11 11 -213 24
-426 24 -82 0 -198 13 -211 24 -2 1 13 56 33 122 35 114 44 145 63 217 5 17
11 39 14 47 3 8 8 27 11 43 7 32 13 33 44 7 l24 -19 -36 -141 c-20 -77 -43
-159 -51 -182 -8 -23 -13 -43 -11 -45 1 -1 103 -6 227 -9 232 -7 417 2 350 17
-19 4 -123 8 -230 8 -107 1 -212 4 -233 7 -41 7 -45 16 -28 68 20 65 48 153
60 193 l13 42 29 -17 c16 -9 37 -24 46 -32 21 -20 211 -144 251 -164 16 -9 35
-22 43 -29 7 -8 40 -29 73 -47 33 -18 89 -51 125 -73 36 -22 94 -56 130 -75
136 -74 137 -68 -7 -75 -234 -12 -1072 -1 -1088 14 -3 4 3 42 14 85 11 44 48
192 83 330 l63 251 25 -15 c14 -9 35 -24 47 -33z m9878 14 c3 -10 11 -38 16
-63 15 -68 23 -99 74 -295 61 -235 68 -267 55 -275 -24 -15 -887 -25 -1083
-14 l-105 7 31 21 c18 12 55 33 82 46 41 20 120 65 225 130 8 5 34 19 58 31
23 13 42 26 42 29 0 4 23 19 50 34 28 15 69 42 93 59 23 18 59 41 80 52 21 11
46 27 55 35 27 24 83 63 86 59 1 -2 13 -40 25 -84 12 -44 27 -96 33 -115 24
-84 24 -87 -19 -93 -22 -4 -125 -7 -229 -7 -104 -1 -207 -4 -229 -8 l-40 -6
45 -7 c59 -10 262 -11 434 -2 120 5 136 8 131 22 -7 17 -23 76 -56 201 -41
152 -40 138 -9 160 16 11 31 17 33 12 3 -4 17 -50 31 -102 23 -88 37 -138 81
-279 11 -35 13 -57 7 -63 -6 -6 -141 -15 -319 -20 -169 -5 -310 -12 -312 -14
-2 -2 -1 -7 3 -11 8 -8 683 -9 691 -2 2 3 -4 30 -14 60 -22 63 -86 265 -102
324 -6 22 -18 62 -26 88 -9 27 -11 52 -7 56 27 23 68 51 74 51 4 0 11 -8 15
-17z"/>
<path d="M1097 10909 c-52 -40 -55 -135 -6 -171 15 -11 136 -42 319 -82 256
-55 288 -64 242 -67 -29 -2 -53 -8 -53 -14 -1 -5 12 -9 29 -7 17 2 33 -1 36
-6 4 -6 -27 -13 -76 -16 -46 -4 -169 -13 -275 -21 -241 -19 -226 -19 -218 4 5
18 3 19 -26 11 -95 -28 -131 -156 -61 -223 15 -15 138 -76 272 -137 336 -152
310 -139 281 -139 -20 -1 -22 -3 -11 -16 7 -9 10 -18 7 -21 -3 -3 -119 11
-259 30 -140 20 -267 36 -282 36 -19 0 -29 6 -33 20 -3 11 -9 20 -12 20 -19 0
-53 -52 -58 -87 -7 -53 10 -90 49 -108 42 -18 764 -99 802 -89 20 5 34 19 47
48 18 40 18 41 -1 44 -18 3 -19 9 -14 72 5 52 3 74 -7 86 -7 9 -118 67 -246
130 -221 108 -271 141 -246 164 4 4 125 20 268 34 143 15 277 31 297 37 43 11
50 22 71 102 15 56 15 58 -4 52 -17 -6 -19 -1 -19 44 0 42 -4 53 -22 65 -19
11 -713 186 -740 186 -5 0 -8 9 -8 20 0 25 -11 25 -43 -1z"/>
<path d="M15868 10300 c-22 -13 -41 -72 -33 -103 11 -41 42 -62 224 -146 96
-44 179 -85 184 -90 5 -5 -40 -52 -114 -117 -217 -191 -202 -175 -202 -228 0
-87 74 -124 146 -74 44 30 165 136 273 240 l90 87 150 21 c172 24 200 33 219
71 19 36 19 39 -4 39 -12 0 -21 10 -26 28 -17 69 -47 74 -251 41 l-130 -21
-195 95 c-107 52 -219 103 -247 113 -36 13 -52 24 -52 36 0 20 -7 22 -32 8z"/>
<path d="M911 9746 c-30 -32 -41 -84 -27 -127 10 -29 24 -41 115 -88 l104 -54
-7 -96 c-3 -53 -6 -145 -6 -206 l0 -110 -93 -39 c-117 -51 -147 -79 -147 -139
0 -34 6 -53 26 -76 42 -50 70 -44 298 65 111 53 280 130 376 171 171 73 223
105 233 144 4 14 0 19 -14 19 -15 0 -19 7 -19 39 0 23 -8 48 -20 64 -12 15
-87 60 -173 103 -252 127 -607 326 -607 340 0 21 -14 17 -39 -10z m516 -547
c-122 -45 -153 -60 -155 -77 -4 -28 -30 -35 -60 -16 l-25 16 5 130 c3 71 8
132 12 135 3 3 12 0 21 -7 13 -10 15 -9 15 8 0 18 17 12 169 -56 l169 -76
-151 -57z"/>
<path d="M1254 9369 c-4 -7 -9 -53 -12 -103 -3 -70 -1 -94 9 -103 11 -8 43 0
139 36 69 26 125 53 125 59 0 7 -49 35 -109 62 -134 61 -143 64 -152 49z"/>
<path d="M16410 9390 c-124 -10 -255 -21 -292 -24 -63 -6 -68 -5 -68 14 0 26
-13 25 -47 -4 -27 -23 -28 -28 -27 -108 1 -120 10 -155 42 -172 15 -8 113 -37
217 -66 105 -28 221 -61 260 -72 l69 -21 -39 -14 c-22 -8 -141 -43 -265 -79
-280 -81 -273 -76 -278 -211 -3 -108 6 -140 48 -159 36 -17 776 -54 812 -42
16 6 35 23 43 39 19 36 19 39 -3 39 -12 0 -21 11 -27 33 -14 44 -53 56 -200
56 -66 1 -191 4 -278 8 -140 5 -159 8 -168 25 -7 13 -6 19 3 22 7 2 92 23 188
46 347 85 442 115 472 149 33 37 35 51 8 51 -16 0 -20 7 -20 34 0 48 -8 65
-39 80 -23 12 -293 81 -514 132 -54 12 -82 24 -89 37 -5 10 -7 22 -3 25 3 4
138 13 298 20 308 15 350 23 366 64 7 19 5 24 -10 26 -12 2 -19 12 -19 25 0
13 -7 33 -16 45 -14 20 -23 22 -107 21 -51 -1 -193 -10 -317 -19z"/>
<path d="M1640 8730 c-11 -11 -21 -30 -21 -42 -3 -48 2 -214 7 -230 3 -10 -2
-19 -15 -23 -12 -3 -17 -12 -14 -23 4 -16 -17 -19 -249 -35 -139 -10 -281 -21
-315 -24 -60 -5 -63 -5 -63 16 0 25 -2 25 -40 6 -38 -20 -50 -43 -50 -99 0
-33 6 -52 26 -75 33 -40 42 -40 424 -1 162 16 300 30 305 30 6 0 16 -51 23
-116 12 -117 28 -167 57 -178 33 -12 66 -5 90 19 30 29 32 45 6 45 -14 0 -20
10 -24 38 -11 69 -37 336 -46 482 -10 160 -14 176 -42 185 -10 4 -19 15 -19
26 0 25 -15 24 -40 -1z"/>
<path d="M15980 8290 c-11 -11 -20 -27 -20 -35 0 -35 -32 -309 -51 -434 -23
-151 -20 -194 16 -217 32 -21 728 -147 774 -140 44 7 59 22 76 80 14 46 14 47
-7 40 -20 -6 -21 -4 -14 42 14 101 54 432 60 497 6 63 5 69 -19 93 -14 14 -25
31 -25 39 0 27 -30 14 -48 -22 -7 -11 -19 -88 -27 -170 -19 -187 -45 -366 -53
-373 -4 -3 -7 -12 -7 -20 0 -18 -26 -18 -151 0 -50 7 -91 19 -101 28 -17 18
-16 44 12 267 19 159 19 224 0 231 -8 4 -15 17 -15 30 0 22 -2 23 -25 12 -33
-15 -39 -41 -66 -281 -14 -132 -26 -200 -34 -204 -7 -2 -11 -13 -8 -24 6 -22
-3 -23 -97 -9 -142 22 -137 12 -111 223 34 275 34 292 16 311 -9 9 -21 16 -26
16 -5 0 -9 9 -9 20 0 11 -4 20 -10 20 -5 0 -19 -9 -30 -20z"/>
<path d="M1415 7729 c-165 -26 -316 -48 -335 -48 -33 0 -34 1 -16 14 19 14 19
15 -6 15 -33 0 -84 -42 -92 -75 -10 -38 11 -101 41 -124 33 -27 60 -26 218 4
71 14 137 25 146 25 13 0 20 -14 29 -57 20 -100 71 -335 76 -347 2 -7 -54 -25
-156 -49 -173 -42 -206 -59 -215 -111 -7 -37 15 -101 43 -122 33 -26 100 -14
456 83 271 73 366 103 387 121 34 28 36 38 9 45 -12 3 -20 14 -20 26 0 29 -35
61 -66 61 -20 0 -24 4 -19 19 5 18 1 18 -96 -5 -55 -13 -105 -24 -111 -24 -6
0 -8 -9 -5 -19 9 -34 -49 -43 -77 -13 -17 20 -84 303 -88 376 -3 34 0 41 15
40 9 -1 17 1 17 5 0 4 61 18 136 31 91 16 147 31 167 44 38 26 44 42 17 49
-13 3 -20 13 -20 30 0 38 -29 57 -86 56 -27 0 -184 -23 -349 -50z m439 -538
c3 -5 -6 -12 -20 -15 -29 -8 -39 -3 -29 13 8 13 42 14 49 2z"/>
<path d="M16003 7341 c-66 -24 -132 -70 -167 -115 -49 -64 -78 -148 -163 -461
-17 -63 -4 -109 38 -130 53 -28 683 -228 721 -229 64 -1 80 21 128 184 66 222
70 241 52 236 -15 -5 -17 6 -17 112 0 108 -2 121 -28 174 -65 132 -222 208
-429 208 -85 0 -89 1 -83 20 3 11 5 20 3 20 -2 -1 -26 -9 -55 -19z m262 -206
c77 -23 152 -71 182 -116 41 -62 42 -123 3 -263 -18 -64 -36 -116 -41 -116 -5
0 -6 -7 -3 -15 4 -8 -1 -17 -9 -21 -23 -8 -560 153 -575 174 -19 25 -11 67 12
67 15 0 25 18 46 85 43 137 77 185 155 215 47 18 154 13 230 -10z"/>
<path d="M16051 7135 c-79 -25 -121 -80 -160 -211 -33 -110 -33 -110 52 -135
39 -11 155 -46 256 -76 133 -40 189 -53 200 -46 17 11 45 95 62 188 21 111
-17 182 -123 236 -54 27 -182 60 -226 58 -10 0 -37 -6 -61 -14z"/>
<path d="M1762 6764 c-317 -96 -372 -125 -429 -222 -23 -39 -28 -61 -31 -138
-4 -78 0 -107 22 -183 84 -293 237 -414 451 -357 88 23 514 208 540 234 30 30
32 42 5 42 -12 0 -20 7 -20 18 0 31 -29 61 -63 64 -24 2 -31 7 -29 21 2 9 1
17 -2 17 -2 0 -113 -43 -245 -95 -133 -52 -251 -95 -261 -95 -11 0 -20 -4 -20
-9 0 -5 8 -7 19 -4 10 3 22 0 25 -6 4 -6 -11 -15 -36 -22 -94 -25 -182 29
-234 145 -35 77 -41 181 -11 181 12 0 24 13 32 32 25 58 81 86 333 168 252 82
306 104 316 130 9 24 8 25 -14 25 -15 0 -20 7 -20 25 0 30 -32 65 -59 65 -11
0 -21 8 -23 18 -3 17 -25 12 -246 -54z"/>
<path d="M16160 6205 c-195 -19 -445 -35 -555 -35 -90 1 -98 2 -81 15 19 14
19 15 -6 15 -37 0 -84 -43 -104 -96 -28 -73 -13 -102 137 -267 72 -78 199
-222 281 -320 153 -179 173 -196 224 -183 48 12 105 96 65 96 -10 0 -24 14
-33 33 -9 17 -43 62 -78 99 -65 71 -76 110 -35 116 15 2 34 37 83 153 35 83
68 163 74 180 10 29 11 29 86 29 110 1 162 13 189 45 28 32 29 45 3 45 -15 0
-20 7 -20 29 0 36 -32 62 -75 60 -16 -1 -86 -7 -155 -14z m-180 -184 c0 -5
-22 -62 -49 -127 -27 -66 -52 -127 -55 -136 -3 -10 -11 -18 -18 -18 -15 0
-268 252 -268 267 0 6 8 14 18 16 32 9 372 7 372 -2z"/>
<path d="M15674 6009 c-8 -14 176 -200 195 -197 7 2 31 43 52 92 30 68 36 92
28 103 -15 17 -264 19 -275 2z"/>
<path d="M2010 5726 c-223 -103 -342 -163 -357 -181 -25 -28 -30 -73 -12 -108
46 -90 93 -90 269 -2 71 36 134 65 138 65 5 0 22 -28 37 -62 41 -92 34 -128
-64 -327 -60 -121 -81 -173 -81 -203 0 -109 103 -170 164 -97 33 38 99 176
120 247 15 52 15 53 -4 47 -17 -6 -20 -2 -20 29 0 40 6 44 26 19 12 -16 13
-15 14 10 l0 28 42 -41 c57 -55 113 -80 176 -80 108 0 197 65 228 166 13 42
12 45 -5 39 -16 -5 -19 2 -24 47 -5 40 -33 108 -112 268 -59 118 -114 223
-122 233 -9 9 -27 17 -40 17 -16 0 -23 6 -23 20 0 11 -3 20 -7 20 -5 -1 -159
-70 -343 -154z m448 -183 c38 -79 62 -141 62 -161 0 -46 -24 -88 -60 -103 -20
-10 -28 -19 -25 -30 8 -23 -20 -31 -65 -19 -53 14 -107 79 -170 201 -51 100
-58 130 -30 134 9 2 60 25 115 53 55 28 103 51 106 51 3 1 33 -56 67 -126z"/>
<path d="M2287 5604 c-37 -19 -70 -41 -73 -49 -8 -20 83 -191 126 -236 41 -44
82 -51 125 -23 28 18 49 74 40 106 -3 13 -29 71 -57 131 -60 124 -59 123 -161
71z"/>
<path d="M15260 5501 c-134 -41 -262 -182 -311 -344 -17 -55 -21 -87 -17 -161
3 -83 8 -102 41 -169 65 -132 213 -248 355 -278 83 -17 187 -7 255 24 120 55
245 211 291 365 15 52 15 53 -4 47 -19 -6 -20 -1 -20 63 0 121 -52 232 -116
248 -15 4 -24 13 -24 25 0 34 -45 16 -68 -28 -22 -40 -14 -78 30 -142 56 -84
63 -151 24 -238 -32 -69 -86 -129 -141 -154 -25 -11 -40 -25 -40 -36 0 -16 -9
-18 -70 -18 -60 0 -81 5 -138 33 -77 38 -189 137 -217 192 -44 86 -51 183 -12
173 14 -3 20 5 29 39 6 24 27 64 47 89 43 57 104 85 204 94 64 7 75 11 97 37
30 36 31 48 5 48 -11 0 -20 6 -20 13 0 30 -35 47 -99 47 -58 0 -62 1 -56 20 3
11 5 20 3 19 -2 0 -14 -4 -28 -8z"/>
<path d="M2833 5039 c-38 -14 -56 -54 -49 -105 4 -33 2 -46 -8 -50 -8 -3 -12
-14 -9 -25 4 -15 0 -19 -18 -19 -40 1 -94 33 -97 58 -3 18 -7 20 -23 12 -21
-12 -25 -41 -8 -72 29 -53 174 -76 254 -39 66 31 127 111 85 111 -13 0 -20 7
-20 18 0 25 -28 62 -55 72 -13 5 -25 18 -27 28 -2 16 -7 18 -25 11z"/>
<path d="M2944 4626 c-46 -20 -103 -84 -115 -130 -25 -91 -6 -165 106 -415 21
-47 38 -101 39 -124 1 -34 -5 -44 -37 -72 -20 -18 -37 -40 -37 -49 0 -23 -53
-21 -106 4 -89 43 -189 188 -182 262 2 25 8 33 22 33 13 0 23 12 31 36 7 20
20 50 29 67 16 30 15 32 -1 32 -10 0 -24 14 -33 33 -8 17 -27 38 -42 45 -16 7
-28 20 -28 28 0 47 -82 -30 -99 -93 -17 -61 -13 -167 9 -230 41 -117 170 -276
272 -336 26 -15 74 -34 108 -43 114 -29 225 17 277 116 24 45 24 45 4 48 -18
3 -21 11 -21 52 0 57 -29 143 -99 292 -27 58 -55 125 -61 148 -14 51 -5 83 20
75 12 -4 19 1 23 14 2 10 16 27 31 36 25 17 29 17 71 1 51 -20 109 -80 137
-142 18 -43 18 -47 2 -107 -29 -106 -29 -120 1 -155 22 -27 34 -32 70 -32 51
0 78 20 100 73 15 35 14 37 -5 37 -17 0 -20 7 -20 48 0 99 -65 226 -167 324
-61 59 -135 96 -204 102 -30 3 -56 5 -59 6 -3 0 4 7 14 15 20 15 20 15 0 15
-10 -1 -33 -7 -50 -14z"/>
<path d="M14459 4473 c-35 -30 -59 -78 -59 -120 0 -15 51 -134 114 -263 63
-129 144 -302 181 -385 36 -82 73 -157 82 -167 33 -36 123 -15 157 36 21 32
20 36 -4 36 -11 0 -20 5 -20 12 0 6 -21 56 -46 110 -44 94 -51 137 -20 125 13
-5 101 98 226 263 18 25 36 48 40 53 4 4 44 -2 91 -13 145 -34 202 -22 227 50
10 26 9 30 -8 30 -10 0 -22 9 -25 20 -9 28 -41 47 -95 55 -107 16 -427 78
-565 110 -82 18 -164 37 -182 40 -22 4 -30 11 -26 21 9 24 -33 16 -68 -13z
m341 -213 c85 -23 156 -44 158 -45 2 -1 -36 -51 -83 -110 -47 -60 -85 -116
-85 -127 0 -19 -16 -23 -38 -10 -17 12 -172 293 -172 313 0 18 24 29 50 24 8
-1 85 -22 170 -45z"/>
<path d="M14652 4263 c5 -32 123 -233 135 -233 7 0 42 37 78 82 54 66 64 84
53 94 -13 12 -225 74 -254 74 -9 0 -14 -7 -12 -17z"/>
</g>
</svg>
