<svg height="512pt" viewBox="0 -4 512 511" width="512pt" xmlns="http://www.w3.org/2000/svg"><path d="m464 256.5h-416c-26.464844 0-48-21.535156-48-48v-160c0-26.464844 21.535156-48 48-48h416c26.464844 0 48 21.535156 48 48v160c0 26.480469-21.535156 48-48 48zm0 0" fill="#d7dee2"/><path d="m0 160.5v48c0 26.464844 21.535156 48 48 48h416c26.464844 0 48-21.535156 48-48v-48zm0 0" fill="#bfc9d1"/><path d="m0 208.5c0 26.464844 21.535156 48 48 48h416c26.464844 0 48-21.535156 48-48v-16h-512zm0 0" fill="#708299"/><path d="m336 128.5h-160c-8.832031 0-16-7.167969-16-16s7.167969-16 16-16h160c8.832031 0 16 7.167969 16 16 0 8.847656-7.167969 16-16 16zm0 0" fill="#67ce91"/><g fill="#e4edfb"><path d="m258.335938 471.925781-28.351563-14.832031c4.160156-7.96875 9.726563-13.664062 14.640625-18.671875 7.886719-8.066406 11.375-12.035156 11.375-21.378906 0-9.3125-3.488281-13.261719-11.390625-21.3125-8.6875-8.878907-20.609375-21.023438-20.609375-43.933594 0-22.863281 11.921875-34.976563 20.609375-43.808594 3.824219-3.886719 7.117187-7.230469 9.085937-10.945312l28.304688 14.945312c-4.160156 7.871094-9.679688 13.488281-14.574219 18.449219-7.921875 8.046875-11.425781 12-11.425781 21.359375 0 9.421875 3.710938 13.632813 11.457031 21.519531 8.671875 8.832032 20.542969 20.945313 20.542969 43.726563 0 22.785156-11.855469 34.914062-20.511719 43.761719-3.839843 3.917968-7.167969 7.328124-9.152343 11.121093zm0 0"/><path d="m130.335938 503.925781-28.351563-14.832031c4.160156-7.96875 9.726563-13.664062 14.640625-18.671875 7.886719-8.066406 11.375-12.035156 11.375-21.378906 0-9.3125-3.488281-13.261719-11.390625-21.3125-8.6875-8.878907-20.609375-21.023438-20.609375-43.933594 0-22.863281 11.921875-34.976563 20.609375-43.808594 3.824219-3.886719 7.117187-7.230469 9.085937-10.945312l28.304688 14.945312c-4.160156 7.871094-9.679688 13.488281-14.574219 18.449219-7.921875 8.046875-11.425781 12-11.425781 21.359375 0 9.421875 3.710938 13.632813 11.457031 21.519531 8.671875 8.832032 20.542969 20.945313 20.542969 43.726563 0 22.785156-11.855469 34.914062-20.511719 43.761719-3.839843 3.917968-7.167969 7.328124-9.152343 11.121093zm0 0"/><path d="m386.335938 503.925781-28.351563-14.832031c4.160156-7.96875 9.726563-13.664062 14.640625-18.671875 7.886719-8.066406 11.375-12.035156 11.375-21.378906 0-9.3125-3.488281-13.261719-11.390625-21.3125-8.6875-8.878907-20.609375-21.023438-20.609375-43.933594 0-22.863281 11.921875-34.976563 20.609375-43.808594 3.824219-3.886719 7.117187-7.230469 9.085937-10.945312l28.304688 14.945312c-4.160156 7.871094-9.679688 13.488281-14.574219 18.449219-7.921875 8.046875-11.425781 12-11.425781 21.359375 0 9.421875 3.710938 13.632813 11.457031 21.519531 8.671875 8.832032 20.542969 20.945313 20.542969 43.726563 0 22.785156-11.855469 34.914062-20.511719 43.761719-3.839843 3.917968-7.167969 7.328124-9.152343 11.121093zm0 0"/></g><path d="m384 32.5h32v32h-32zm0 0" fill="#fff"/><path d="m448 64.5h32v32h-32zm0 0" fill="#fff"/><path d="m2.945312 224.5h506.09375c1.792969-5.023438 2.945313-10.367188 2.945313-16v-16h-511.984375v16c0 5.648438 1.152344 10.976562 2.945312 16zm0 0" fill="#68788e"/></svg>